{
	"buffers":[{
		"uri":"data:application/octet-stream;base64,",
		"byteLength":2344
	},
	{
		"uri":"data:application/octet-stream;base64,",
		"byteLength":2344
	},
	{
		"uri":"data:application/octet-stream;base64,",
		"byteLength":2344
	},
	{
		"uri":"data:application/octet-stream;base64,",
		"byteLength":2344
	},
	{
		"uri":"data:application/octet-stream;base64,",
		"byteLength":2344
	}],
	"asset":{
		"version":"2.0",
		"generator":"Created using the official Cinema 4D glTF Exporter 1.000x284978"
	},
	"scenes":[{
		"nodes":[0]
	}],
	"meshes":[{
		"name":"圆柱体 0",
		"primitives":[{
			"indices":0,
			"attributes":{
				"POSITION":1,
				"NORMAL":2,
				"TEXCOORD_0":3
			},
			"material":0
		}]
	},
	{
		"name":"圆柱体 1",
		"primitives":[{
			"indices":4,
			"attributes":{
				"POSITION":5,
				"NORMAL":6,
				"TEXCOORD_0":7
			},
			"material":0
		}]
	},
	{
		"name":"圆柱体 2",
		"primitives":[{
			"indices":8,
			"attributes":{
				"POSITION":9,
				"NORMAL":10,
				"TEXCOORD_0":11
			},
			"material":0
		}]
	},
	{
		"name":"圆柱体 3",
		"primitives":[{
			"indices":12,
			"attributes":{
				"POSITION":13,
				"NORMAL":14,
				"TEXCOORD_0":15
			},
			"material":0
		}]
	},
	{
		"name":"圆柱体 4",
		"primitives":[{
			"indices":16,
			"attributes":{
				"POSITION":17,
				"NORMAL":18,
				"TEXCOORD_0":19
			},
			"material":0
		}]
	}],
	"nodes":[{
		"name":"粒子环",
		"children":[1,
		2,
		3,
		4,
		5]
	},
	{
		"name":"圆柱体 0",
		"translation":[0.0,
		-100.0,
		0.0],
		"rotation":[0.0,
		0.0,
		0.0,
		-1.0],
		"scale":[0.3457520306110382,
		0.3457520306110382,
		0.3457520306110382],
		"mesh":0
	},
	{
		"name":"圆柱体 1",
		"translation":[0.0,
		-50.0,
		0.0],
		"rotation":[0.0,
		0.0,
		0.0,
		-1.0],
		"scale":[0.7467895746231079,
		0.7467895746231079,
		0.7467895746231079],
		"mesh":1
	},
	{
		"name":"圆柱体 2",
		"mesh":2
	},
	{
		"name":"圆柱体 3",
		"translation":[0.0,
		50.0,
		0.0],
		"rotation":[0.0,
		0.0,
		7.450580596923828e-9,
		-1.0],
		"scale":[0.7495278716087341,
		0.7495278716087341,
		0.7495278716087341],
		"mesh":3
	},
	{
		"name":"圆柱体 4",
		"translation":[0.0,
		100.0,
		0.0],
		"rotation":[0.0,
		0.0,
		0.0,
		-1.0],
		"scale":[0.3484906256198883,
		0.3484906256198883,
		0.3484906256198883],
		"mesh":4
	}],
	"accessors":[{
		"bufferView":0,
		"type":"SCALAR",
		"max":[61],
		"componentType":5123,
		"count":180,
		"byteOffset":0,
		"min":[0]
	},
	{
		"bufferView":1,
		"type":"VEC3",
		"max":[100.27721405029297,
		1.5,
		99.7278823852539],
		"componentType":5126,
		"count":62,
		"byteOffset":0,
		"min":[-100.27721405029297,
		-1.5,
		-99.7278823852539]
	},
	{
		"bufferView":1,
		"type":"VEC3",
		"max":[0.9993867874145508,
		0.0,
		0.9975719451904297],
		"componentType":5126,
		"count":62,
		"byteOffset":12,
		"min":[-0.9993867874145508,
		0.0,
		-0.9975719451904297]
	},
	{
		"bufferView":1,
		"type":"VEC2",
		"max":[25.0,
		1.2054795026779175],
		"componentType":5126,
		"count":62,
		"byteOffset":24,
		"min":[0.0,
		-0.16438356041908265]
	},
	{
		"bufferView":2,
		"type":"SCALAR",
		"max":[61],
		"componentType":5123,
		"count":180,
		"byteOffset":0,
		"min":[0]
	},
	{
		"bufferView":3,
		"type":"VEC3",
		"max":[100.27721405029297,
		1.5,
		99.7278823852539],
		"componentType":5126,
		"count":62,
		"byteOffset":0,
		"min":[-100.27721405029297,
		-1.5,
		-99.7278823852539]
	},
	{
		"bufferView":3,
		"type":"VEC3",
		"max":[0.9993867874145508,
		0.0,
		0.9975719451904297],
		"componentType":5126,
		"count":62,
		"byteOffset":12,
		"min":[-0.9993867874145508,
		0.0,
		-0.9975719451904297]
	},
	{
		"bufferView":3,
		"type":"VEC2",
		"max":[25.0,
		1.2054795026779175],
		"componentType":5126,
		"count":62,
		"byteOffset":24,
		"min":[0.0,
		-0.16438356041908265]
	},
	{
		"bufferView":4,
		"type":"SCALAR",
		"max":[61],
		"componentType":5123,
		"count":180,
		"byteOffset":0,
		"min":[0]
	},
	{
		"bufferView":5,
		"type":"VEC3",
		"max":[100.27721405029297,
		1.5,
		99.7278823852539],
		"componentType":5126,
		"count":62,
		"byteOffset":0,
		"min":[-100.27721405029297,
		-1.5,
		-99.7278823852539]
	},
	{
		"bufferView":5,
		"type":"VEC3",
		"max":[0.9993867874145508,
		0.0,
		0.9975719451904297],
		"componentType":5126,
		"count":62,
		"byteOffset":12,
		"min":[-0.9993867874145508,
		0.0,
		-0.9975719451904297]
	},
	{
		"bufferView":5,
		"type":"VEC2",
		"max":[25.0,
		1.2054795026779175],
		"componentType":5126,
		"count":62,
		"byteOffset":24,
		"min":[0.0,
		-0.16438356041908265]
	},
	{
		"bufferView":6,
		"type":"SCALAR",
		"max":[61],
		"componentType":5123,
		"count":180,
		"byteOffset":0,
		"min":[0]
	},
	{
		"bufferView":7,
		"type":"VEC3",
		"max":[100.27721405029297,
		1.5,
		99.7278823852539],
		"componentType":5126,
		"count":62,
		"byteOffset":0,
		"min":[-100.27721405029297,
		-1.5,
		-99.7278823852539]
	},
	{
		"bufferView":7,
		"type":"VEC3",
		"max":[0.9993867874145508,
		0.0,
		0.9975719451904297],
		"componentType":5126,
		"count":62,
		"byteOffset":12,
		"min":[-0.9993867874145508,
		0.0,
		-0.9975719451904297]
	},
	{
		"bufferView":7,
		"type":"VEC2",
		"max":[25.0,
		1.2054795026779175],
		"componentType":5126,
		"count":62,
		"byteOffset":24,
		"min":[0.0,
		-0.16438356041908265]
	},
	{
		"bufferView":8,
		"type":"SCALAR",
		"max":[61],
		"componentType":5123,
		"count":180,
		"byteOffset":0,
		"min":[0]
	},
	{
		"bufferView":9,
		"type":"VEC3",
		"max":[100.27721405029297,
		1.5,
		99.7278823852539],
		"componentType":5126,
		"count":62,
		"byteOffset":0,
		"min":[-100.27721405029297,
		-1.5,
		-99.7278823852539]
	},
	{
		"bufferView":9,
		"type":"VEC3",
		"max":[0.9993867874145508,
		0.0,
		0.9975719451904297],
		"componentType":5126,
		"count":62,
		"byteOffset":12,
		"min":[-0.9993867874145508,
		0.0,
		-0.9975719451904297]
	},
	{
		"bufferView":9,
		"type":"VEC2",
		"max":[25.0,
		1.2054795026779175],
		"componentType":5126,
		"count":62,
		"byteOffset":24,
		"min":[0.0,
		-0.16438356041908265]
	}],
	"bufferViews":[{
		"buffer":0,
		"byteOffset":0,
		"byteLength":360,
		"target":34963
	},
	{
		"buffer":0,
		"byteStride":32,
		"byteOffset":360,
		"byteLength":1984,
		"target":34962
	},
	{
		"buffer":1,
		"byteOffset":0,
		"byteLength":360,
		"target":34963
	},
	{
		"buffer":1,
		"byteStride":32,
		"byteOffset":360,
		"byteLength":1984,
		"target":34962
	},
	{
		"buffer":2,
		"byteOffset":0,
		"byteLength":360,
		"target":34963
	},
	{
		"buffer":2,
		"byteStride":32,
		"byteOffset":360,
		"byteLength":1984,
		"target":34962
	},
	{
		"buffer":3,
		"byteOffset":0,
		"byteLength":360,
		"target":34963
	},
	{
		"buffer":3,
		"byteStride":32,
		"byteOffset":360,
		"byteLength":1984,
		"target":34962
	},
	{
		"buffer":4,
		"byteOffset":0,
		"byteLength":360,
		"target":34963
	},
	{
		"buffer":4,
		"byteStride":32,
		"byteOffset":360,
		"byteLength":1984,
		"target":34962
	}],
	"images":[{
		"uri":"data:image/png;base64,"
	},
	{
		"uri":"data:image/jpeg;base64,"
	}],
	"samplers":[{
		"magFilter":9729,
		"minFilter":9729,
		"wrapS":10497,
		"wrapT":10497
	},
	{
		"magFilter":9729,
		"minFilter":9729,
		"wrapS":10497,
		"wrapT":10497
	}],
	"textures":[{
		"sampler":0,
		"source":0
	},
	{
		"sampler":1,
		"source":1
	}],
	"materials":[{
		"pbrMetallicRoughness":{
			"baseColorTexture":{
				"index":0
			},
			"baseColorFactor":[1.0,
			1.0,
			1.0,
			1.0],
			"metallicFactor":1.0,
			"roughnessFactor":1.0
		},
		"emissiveTexture":{
			"index":1
		},
		"emissiveFactor":[1.0,
		1.0,
		1.0],
		"alphaMode":"BLEND",
		"doubleSided":false,
		"name":"材质"
	}]
}